<svg xmlns="http://www.w3.org/2000/svg" xmlns:xlink="http://www.w3.org/1999/xlink" width="180" zoomAndPan="magnify" viewBox="0 0 135 135.000003" height="180" preserveAspectRatio="xMidYMid meet" version="1.0"><defs><clipPath id="580122e320"><path d="M 13.898438 13.402344 L 121.101562 13.402344 L 121.101562 120.605469 L 13.898438 120.605469 Z M 13.898438 13.402344 " clip-rule="nonzero"/></clipPath></defs><g clip-path="url(#580122e320)"><path fill="#0a7588" d="M 24.488281 35.019531 C 26.050781 32.925781 27.761719 30.945312 29.605469 29.101562 C 33.691406 25.011719 38.441406 21.582031 43.675781 18.980469 C 44.488281 18.578125 45.257812 19.613281 44.625 20.265625 C 42.742188 22.207031 40.980469 24.382812 39.367188 26.765625 C 37.472656 29.554688 35.773438 32.628906 34.304688 35.9375 C 34.171875 36.234375 33.878906 36.425781 33.554688 36.421875 L 25.132812 36.316406 C 24.46875 36.304688 24.09375 35.550781 24.488281 35.019531 Z M 14.839844 64.007812 L 27.269531 64.140625 C 27.707031 64.148438 28.070312 63.800781 28.085938 63.363281 C 28.449219 54.996094 30.050781 47.101562 32.617188 40.089844 L 21.699219 39.953125 C 21.40625 39.949219 21.132812 40.101562 20.984375 40.359375 C 17.082031 47.160156 14.625 54.894531 14.039062 63.148438 C 14.007812 63.613281 14.375 64.003906 14.839844 64.007812 Z M 52.207031 40.332031 L 37.101562 40.144531 C 36.761719 40.140625 36.453125 40.347656 36.332031 40.664062 C 33.761719 47.449219 32.15625 55.148438 31.785156 63.355469 C 31.765625 63.808594 32.132812 64.191406 32.585938 64.199219 L 50.585938 64.390625 C 51.027344 64.398438 51.394531 64.039062 51.402344 63.59375 C 51.527344 55.582031 52.085938 48.019531 52.996094 41.25 C 53.0625 40.769531 52.691406 40.335938 52.207031 40.332031 Z M 38.097656 36.476562 L 52.992188 36.660156 C 53.390625 36.667969 53.734375 36.378906 53.800781 35.984375 C 54.339844 32.875 54.949219 29.980469 55.628906 27.34375 C 56.785156 22.855469 58.175781 19.074219 59.75 16.175781 C 60.113281 15.511719 59.457031 14.765625 58.75 15.03125 C 52.492188 17.402344 46.878906 22.25 42.410156 28.828125 C 40.816406 31.171875 39.375 33.730469 38.097656 36.476562 Z M 38.097656 36.476562 Z M 59.191406 28.25 C 58.597656 30.558594 58.054688 33.078125 57.574219 35.777344 C 57.484375 36.265625 57.863281 36.71875 58.359375 36.726562 L 76.675781 36.957031 C 77.183594 36.960938 77.574219 36.507812 77.488281 36.007812 C 76.996094 33.222656 76.4375 30.628906 75.828125 28.25 C 73.464844 19.074219 70.507812 13.402344 67.511719 13.402344 C 64.515625 13.402344 61.554688 19.074219 59.191406 28.25 Z M 57.550781 40.398438 C 57.144531 40.394531 56.792969 40.691406 56.738281 41.097656 C 55.804688 47.867188 55.226562 55.5 55.097656 63.625 C 55.089844 64.074219 55.453125 64.445312 55.902344 64.449219 L 79.105469 64.695312 C 79.558594 64.703125 79.929688 64.328125 79.925781 63.875 C 79.804688 55.480469 79.203125 47.605469 78.222656 40.65625 Z M 84.421875 64.753906 L 102.441406 64.949219 C 102.902344 64.953125 103.277344 64.574219 103.261719 64.113281 C 102.972656 55.929688 101.453125 48.238281 98.972656 41.4375 C 98.859375 41.121094 98.558594 40.910156 98.21875 40.90625 L 81.949219 40.703125 C 82.914062 47.710938 83.503906 55.59375 83.621094 63.953125 C 83.628906 64.394531 83.980469 64.75 84.421875 64.753906 Z M 79.394531 27.34375 C 80.148438 30.269531 80.820312 33.511719 81.394531 37.015625 L 95.976562 37.195312 C 96.574219 37.207031 96.972656 36.578125 96.71875 36.035156 C 95.492188 33.460938 94.117188 31.046875 92.613281 28.828125 C 88.144531 22.25 82.53125 17.402344 76.273438 15.03125 C 75.566406 14.765625 74.910156 15.511719 75.273438 16.175781 C 76.851562 19.074219 78.238281 22.855469 79.394531 27.34375 Z M 95.660156 26.761719 C 97.710938 29.789062 99.535156 33.144531 101.085938 36.777344 C 101.214844 37.070312 101.5 37.265625 101.820312 37.269531 L 110.644531 37.378906 C 111.304688 37.386719 111.699219 36.640625 111.320312 36.105469 C 109.554688 33.605469 107.578125 31.257812 105.421875 29.101562 C 101.332031 25.011719 96.582031 21.582031 91.351562 18.980469 C 90.535156 18.578125 89.765625 19.613281 90.398438 20.265625 C 92.28125 22.207031 94.039062 24.382812 95.660156 26.761719 Z M 103.863281 40.976562 C 103.304688 40.96875 102.910156 41.515625 103.085938 42.046875 C 105.335938 48.804688 106.703125 56.300781 106.964844 64.21875 C 106.980469 64.652344 107.332031 65 107.765625 65.003906 L 120.230469 65.136719 C 120.695312 65.140625 121.074219 64.753906 121.050781 64.292969 C 120.632812 55.914062 118.289062 48.042969 114.457031 41.105469 Z M 120.25 68.820312 L 107.792969 68.6875 C 107.347656 68.679688 106.988281 69.035156 106.972656 69.476562 C 106.742188 77.515625 105.367188 85.128906 103.082031 91.980469 C 102.902344 92.507812 103.304688 93.046875 103.859375 93.039062 L 113.976562 92.914062 C 114.273438 92.910156 114.542969 92.75 114.683594 92.492188 C 118.386719 85.640625 120.648438 77.898438 121.050781 69.664062 C 121.074219 69.207031 120.710938 68.824219 120.25 68.820312 Z M 112.203125 96.617188 Z M 101.085938 97.242188 C 99.535156 100.871094 97.710938 104.230469 95.660156 107.253906 C 94.042969 109.636719 92.28125 111.8125 90.398438 113.753906 C 89.765625 114.40625 90.535156 115.441406 91.351562 115.039062 C 96.582031 112.4375 101.332031 109.007812 105.421875 104.917969 C 107.945312 102.390625 110.222656 99.609375 112.207031 96.621094 L 101.820312 96.75 C 101.5 96.75 101.214844 96.945312 101.085938 97.242188 Z M 92.613281 105.1875 C 94.117188 102.972656 95.492188 100.5625 96.71875 97.980469 C 96.972656 97.441406 96.574219 96.8125 95.976562 96.820312 L 82.070312 96.996094 C 81.679688 97 81.347656 97.289062 81.285156 97.671875 C 80.734375 100.921875 80.101562 103.9375 79.394531 106.679688 C 78.238281 111.164062 76.847656 114.945312 75.273438 117.839844 C 74.910156 118.507812 75.566406 119.253906 76.273438 118.984375 C 82.53125 116.613281 88.144531 111.765625 92.613281 105.1875 Z M 82.886719 93.304688 L 98.21875 93.113281 C 98.558594 93.105469 98.859375 92.898438 98.972656 92.582031 C 101.496094 85.65625 103.027344 77.808594 103.277344 69.464844 C 103.292969 69.011719 102.929688 68.636719 102.476562 68.628906 L 84.449219 68.4375 C 84 68.433594 83.636719 68.792969 83.628906 69.242188 C 83.542969 77.535156 82.992188 85.378906 82.070312 92.386719 C 82.007812 92.875 82.390625 93.308594 82.886719 93.304688 Z M 56.738281 92.917969 C 56.792969 93.324219 57.140625 93.621094 57.550781 93.617188 L 78.222656 93.359375 C 79.238281 86.152344 79.851562 77.945312 79.9375 69.199219 C 79.945312 68.75 79.582031 68.382812 79.132812 68.378906 L 55.902344 68.128906 C 55.449219 68.125 55.078125 68.492188 55.082031 68.945312 C 55.160156 77.613281 55.75 85.753906 56.738281 92.917969 Z M 77.65625 97.046875 Z M 77.65625 97.046875 L 58.363281 97.289062 C 57.863281 97.296875 57.488281 97.746094 57.574219 98.242188 C 58.058594 100.9375 58.597656 103.457031 59.195312 105.769531 C 61.558594 114.941406 64.519531 120.617188 67.511719 120.617188 C 70.507812 120.617188 73.46875 114.941406 75.832031 105.769531 C 76.511719 103.121094 77.125 100.199219 77.65625 97.046875 Z M 51.386719 68.878906 C 51.382812 68.4375 51.027344 68.082031 50.585938 68.074219 L 32.542969 67.882812 C 32.089844 67.878906 31.714844 68.253906 31.722656 68.707031 C 31.910156 77.648438 33.5625 86.035156 36.335938 93.355469 C 36.457031 93.671875 36.765625 93.878906 37.105469 93.875 L 52.207031 93.6875 C 52.691406 93.679688 53.0625 93.25 53 92.765625 C 52.03125 85.5625 51.457031 77.457031 51.386719 68.878906 Z M 55.628906 106.675781 C 54.898438 103.847656 54.246094 100.71875 53.683594 97.347656 L 39.367188 97.527344 C 38.769531 97.535156 38.386719 98.164062 38.652344 98.699219 C 39.789062 101.007812 41.046875 103.179688 42.410156 105.191406 C 46.875 111.769531 52.488281 116.617188 58.746094 118.988281 C 59.453125 119.257812 60.109375 118.507812 59.75 117.84375 C 58.171875 114.941406 56.78125 111.160156 55.628906 106.675781 Z M 39.363281 107.253906 C 37.46875 104.460938 35.773438 101.390625 34.300781 98.082031 C 34.171875 97.78125 33.875 97.59375 33.550781 97.597656 L 25.128906 97.703125 C 24.46875 97.710938 24.09375 98.464844 24.488281 98.996094 C 26.046875 101.09375 27.757812 103.070312 29.601562 104.914062 C 33.691406 109.003906 38.4375 112.433594 43.671875 115.035156 C 44.484375 115.441406 45.253906 114.402344 44.621094 113.753906 C 42.742188 111.808594 40.980469 109.632812 39.363281 107.253906 Z M 32.242188 92.871094 C 29.695312 85.550781 28.191406 77.324219 28.027344 68.621094 C 28.019531 68.179688 27.664062 67.828125 27.226562 67.820312 L 14.746094 67.6875 C 14.289062 67.679688 13.914062 68.058594 13.925781 68.515625 C 14.179688 77.648438 16.71875 86.210938 20.988281 93.65625 C 21.136719 93.910156 21.410156 94.066406 21.703125 94.0625 L 31.492188 93.941406 C 32.039062 93.933594 32.425781 93.390625 32.242188 92.871094 Z M 32.242188 92.871094 " fill-opacity="1" fill-rule="evenodd"/></g></svg>